G04 Layer_Color=255*
%FSLAX44Y44*%
%MOMM*%
G71*
G01*
G75*
%ADD10R,0.5000X0.4500*%
%ADD11R,0.4500X0.5000*%
%ADD12R,1.2000X1.6000*%
%ADD13R,1.6000X1.2000*%
%ADD14R,0.8000X0.6500*%
%ADD15C,1.0000*%
G04:AMPARAMS|DCode=16|XSize=0.65mm|YSize=0.8mm|CornerRadius=0mm|HoleSize=0mm|Usage=FLASHONLY|Rotation=135.000|XOffset=0mm|YOffset=0mm|HoleType=Round|Shape=Rectangle|*
%AMROTATEDRECTD16*
4,1,4,0.5127,0.0530,-0.0530,-0.5127,-0.5127,-0.0530,0.0530,0.5127,0.5127,0.0530,0.0*
%
%ADD16ROTATEDRECTD16*%

G04:AMPARAMS|DCode=17|XSize=0.45mm|YSize=0.5mm|CornerRadius=0mm|HoleSize=0mm|Usage=FLASHONLY|Rotation=135.000|XOffset=0mm|YOffset=0mm|HoleType=Round|Shape=Rectangle|*
%AMROTATEDRECTD17*
4,1,4,0.3359,0.0177,-0.0177,-0.3359,-0.3359,-0.0177,0.0177,0.3359,0.3359,0.0177,0.0*
%
%ADD17ROTATEDRECTD17*%

%ADD18R,0.6500X0.8000*%
%ADD19R,1.0000X1.4000*%
%ADD20R,0.8000X0.8000*%
%ADD21R,1.4000X1.0000*%
%ADD22R,1.5000X3.2000*%
%ADD23R,0.8000X0.8000*%
%ADD24R,2.1000X1.2000*%
%ADD25R,1.4000X1.2000*%
%ADD26R,0.2500X0.5500*%
%ADD27R,1.1000X1.2500*%
%ADD28R,2.8000X1.4000*%
%ADD29R,3.5000X1.0000*%
%ADD30R,0.9000X0.8000*%
%ADD31R,4.6000X4.6000*%
%ADD32O,0.2000X0.8500*%
%ADD33O,0.8500X0.2000*%
%ADD34R,2.5500X2.5500*%
%ADD35O,0.2500X0.8000*%
%ADD36O,0.8000X0.2500*%
G04:AMPARAMS|DCode=37|XSize=0.3mm|YSize=1.6mm|CornerRadius=0mm|HoleSize=0mm|Usage=FLASHONLY|Rotation=315.000|XOffset=0mm|YOffset=0mm|HoleType=Round|Shape=Rectangle|*
%AMROTATEDRECTD37*
4,1,4,-0.6717,-0.4596,0.4596,0.6717,0.6717,0.4596,-0.4596,-0.6717,-0.6717,-0.4596,0.0*
%
%ADD37ROTATEDRECTD37*%

%ADD38R,2.6200X3.5100*%
%ADD39R,1.6000X0.6100*%
%ADD40R,0.5000X0.3000*%
%ADD41R,0.6000X0.3000*%
%ADD42R,2.2000X8.0000*%
G04:AMPARAMS|DCode=43|XSize=0.55mm|YSize=1.65mm|CornerRadius=0mm|HoleSize=0mm|Usage=FLASHONLY|Rotation=315.000|XOffset=0mm|YOffset=0mm|HoleType=Round|Shape=Round|*
%AMOVALD43*
21,1,1.1000,0.5500,0.0000,0.0000,45.0*
1,1,0.5500,-0.3889,-0.3889*
1,1,0.5500,0.3889,0.3889*
%
%ADD43OVALD43*%

G04:AMPARAMS|DCode=44|XSize=0.55mm|YSize=1.65mm|CornerRadius=0mm|HoleSize=0mm|Usage=FLASHONLY|Rotation=225.000|XOffset=0mm|YOffset=0mm|HoleType=Round|Shape=Round|*
%AMOVALD44*
21,1,1.1000,0.5500,0.0000,0.0000,315.0*
1,1,0.5500,-0.3889,0.3889*
1,1,0.5500,0.3889,-0.3889*
%
%ADD44OVALD44*%

%ADD45O,1.7000X0.3500*%
%ADD46R,1.7000X0.3500*%
%ADD47R,1.3500X0.4000*%
%ADD48R,1.5500X1.2000*%
%ADD49R,1.5500X1.5000*%
%ADD50R,0.2540X0.5080*%
%ADD65C,0.8800*%
%ADD66C,1.5000*%
%ADD67R,1.5000X1.5000*%
%ADD68C,1.7000*%
%ADD69R,1.7000X1.7000*%
%ADD70C,4.6200*%
%ADD71C,5.3800*%
%ADD72C,1.3700*%
%ADD73R,1.3700X1.3700*%
%ADD74C,1.5400*%
%ADD75C,1.9300*%
%ADD76O,1.5500X0.9000*%
%ADD77O,0.9500X1.2500*%
%ADD78C,0.5080*%
D10*
X349843Y297750D02*
D03*
Y307250D02*
D03*
X308006Y91193D02*
D03*
Y81693D02*
D03*
X77000Y402500D02*
D03*
Y393000D02*
D03*
X103000Y408500D02*
D03*
Y418000D02*
D03*
X121750Y218750D02*
D03*
Y209250D02*
D03*
X113000Y263250D02*
D03*
Y272750D02*
D03*
X112250Y251250D02*
D03*
Y241750D02*
D03*
X349843Y285000D02*
D03*
Y275500D02*
D03*
X180250Y455250D02*
D03*
Y445750D02*
D03*
X321305Y285000D02*
D03*
Y275500D02*
D03*
X336500Y285000D02*
D03*
Y275500D02*
D03*
X317142Y81693D02*
D03*
Y91193D02*
D03*
X651750Y218250D02*
D03*
Y208750D02*
D03*
X91000Y408500D02*
D03*
Y418000D02*
D03*
X68000Y393000D02*
D03*
Y402500D02*
D03*
X309250Y246750D02*
D03*
Y256250D02*
D03*
X321000D02*
D03*
Y246750D02*
D03*
X333000Y256250D02*
D03*
Y246750D02*
D03*
X184700Y242550D02*
D03*
Y233050D02*
D03*
X326278Y81693D02*
D03*
Y91193D02*
D03*
X177100Y214300D02*
D03*
Y223800D02*
D03*
D11*
X373357Y266500D02*
D03*
X363857D02*
D03*
X38033Y161178D02*
D03*
X47533D02*
D03*
X322426Y70083D02*
D03*
X312926D02*
D03*
X127250Y333750D02*
D03*
X117750D02*
D03*
X167000Y214300D02*
D03*
X157500D02*
D03*
X385464Y266500D02*
D03*
X394964D02*
D03*
X320250Y182000D02*
D03*
X310750D02*
D03*
X102250Y364750D02*
D03*
X92750D02*
D03*
X127250Y321750D02*
D03*
X117750D02*
D03*
X287250Y69750D02*
D03*
X296750D02*
D03*
X283250Y102250D02*
D03*
X292750D02*
D03*
X208250Y327500D02*
D03*
X217750D02*
D03*
X310750Y193500D02*
D03*
X320250D02*
D03*
X162250Y321000D02*
D03*
X171750D02*
D03*
X101750Y428750D02*
D03*
X92250D02*
D03*
X67750Y384000D02*
D03*
X77250D02*
D03*
X310750Y234100D02*
D03*
X320250D02*
D03*
X228050Y262400D02*
D03*
X237550D02*
D03*
X382750Y243900D02*
D03*
X373250D02*
D03*
D12*
X319500Y146250D02*
D03*
X287500D02*
D03*
X319500Y120191D02*
D03*
X287500D02*
D03*
D13*
X237400Y118300D02*
D03*
Y86300D02*
D03*
D14*
X272500Y83500D02*
D03*
Y70000D02*
D03*
X136250Y302250D02*
D03*
Y288750D02*
D03*
X139500Y333500D02*
D03*
Y320000D02*
D03*
X195250Y405000D02*
D03*
Y391500D02*
D03*
X162250Y288750D02*
D03*
Y302250D02*
D03*
X195250Y361000D02*
D03*
Y374500D02*
D03*
D15*
X533500Y363000D02*
D03*
X36000Y25250D02*
D03*
X92250Y510000D02*
D03*
D16*
X468977Y230523D02*
D03*
X478523Y220977D02*
D03*
X586091Y299805D02*
D03*
X576545Y309351D02*
D03*
X570477Y347023D02*
D03*
X580023Y337477D02*
D03*
D17*
X478391Y239609D02*
D03*
X485109Y232891D02*
D03*
X592359Y312391D02*
D03*
X585641Y319109D02*
D03*
X492891Y225109D02*
D03*
X499609Y218391D02*
D03*
D18*
X133750Y214300D02*
D03*
X147250D02*
D03*
X293000Y341000D02*
D03*
X279500D02*
D03*
X86250Y211000D02*
D03*
X99750D02*
D03*
X271000Y124000D02*
D03*
X257500D02*
D03*
D19*
X373357Y282098D02*
D03*
X363857Y304098D02*
D03*
X382857D02*
D03*
D20*
X193750Y455250D02*
D03*
Y439250D02*
D03*
X321305Y315390D02*
D03*
Y299390D02*
D03*
X336545Y315390D02*
D03*
Y299390D02*
D03*
D21*
X382750Y193250D02*
D03*
Y174250D02*
D03*
X404750Y183750D02*
D03*
X382750Y229500D02*
D03*
Y210500D02*
D03*
X404750Y220000D02*
D03*
X341500Y229500D02*
D03*
Y210500D02*
D03*
X363500Y220000D02*
D03*
Y183750D02*
D03*
X341500Y174250D02*
D03*
Y193250D02*
D03*
D22*
X119250Y296500D02*
D03*
X77250D02*
D03*
Y172800D02*
D03*
X119250D02*
D03*
D23*
X155750Y332750D02*
D03*
X171750D02*
D03*
X51324Y174485D02*
D03*
X35324D02*
D03*
D24*
X206400Y128550D02*
D03*
Y84550D02*
D03*
X174150Y128550D02*
D03*
Y84550D02*
D03*
D25*
X101000Y327250D02*
D03*
X79000D02*
D03*
Y344250D02*
D03*
X101000D02*
D03*
D26*
X90000Y392250D02*
D03*
X95000D02*
D03*
X100000D02*
D03*
Y383750D02*
D03*
X95000D02*
D03*
X90000D02*
D03*
D27*
X109000Y226750D02*
D03*
X88000D02*
D03*
X101000Y145200D02*
D03*
X122000D02*
D03*
D28*
X208832Y218827D02*
D03*
Y244827D02*
D03*
D29*
X195800Y170800D02*
D03*
X149800D02*
D03*
D30*
X149250Y288500D02*
D03*
Y302500D02*
D03*
D31*
X147750Y382750D02*
D03*
D32*
X169750Y353750D02*
D03*
X165750D02*
D03*
X161750D02*
D03*
X157750D02*
D03*
X153750D02*
D03*
X149750D02*
D03*
X145750D02*
D03*
X141750D02*
D03*
X137750D02*
D03*
X133750D02*
D03*
X129750D02*
D03*
X125750D02*
D03*
Y411750D02*
D03*
X129750D02*
D03*
X133750D02*
D03*
X137750D02*
D03*
X141750D02*
D03*
X145750D02*
D03*
X149750D02*
D03*
X153750D02*
D03*
X157750D02*
D03*
X161750D02*
D03*
X165750D02*
D03*
X169750D02*
D03*
D33*
X118750Y360750D02*
D03*
Y364750D02*
D03*
Y368750D02*
D03*
Y372750D02*
D03*
Y376750D02*
D03*
Y380750D02*
D03*
Y384750D02*
D03*
Y388750D02*
D03*
Y392750D02*
D03*
Y396750D02*
D03*
Y400750D02*
D03*
Y404750D02*
D03*
X176750D02*
D03*
Y400750D02*
D03*
Y396750D02*
D03*
Y392750D02*
D03*
Y388750D02*
D03*
Y384750D02*
D03*
Y380750D02*
D03*
Y376750D02*
D03*
Y372750D02*
D03*
Y368750D02*
D03*
Y364750D02*
D03*
Y360750D02*
D03*
D34*
X147750Y251000D02*
D03*
D35*
X135250Y270500D02*
D03*
X140250D02*
D03*
X145250D02*
D03*
X150250D02*
D03*
X155250D02*
D03*
X160250D02*
D03*
Y231500D02*
D03*
X155250D02*
D03*
X150250D02*
D03*
X145250D02*
D03*
X140250D02*
D03*
X135250D02*
D03*
D36*
X167250Y263500D02*
D03*
Y258500D02*
D03*
Y253500D02*
D03*
Y248500D02*
D03*
Y243500D02*
D03*
Y238500D02*
D03*
X128250D02*
D03*
Y243500D02*
D03*
Y248500D02*
D03*
Y253500D02*
D03*
Y258500D02*
D03*
Y263500D02*
D03*
D37*
X555783Y335718D02*
D03*
X569217Y322282D02*
D03*
X562500Y329000D02*
D03*
D38*
X264530Y227750D02*
D03*
D39*
X291530Y208700D02*
D03*
Y221400D02*
D03*
Y234100D02*
D03*
Y246800D02*
D03*
X237530Y208700D02*
D03*
Y221400D02*
D03*
Y234100D02*
D03*
Y246800D02*
D03*
D40*
X85750Y253500D02*
D03*
Y258500D02*
D03*
Y263500D02*
D03*
X99750D02*
D03*
Y258500D02*
D03*
Y253500D02*
D03*
D41*
X297000Y91250D02*
D03*
Y86250D02*
D03*
Y81250D02*
D03*
X283000D02*
D03*
Y86250D02*
D03*
Y91250D02*
D03*
D42*
X406700Y107800D02*
D03*
X349700D02*
D03*
D43*
X583976Y276661D02*
D03*
X578319Y282318D02*
D03*
X572663Y287975D02*
D03*
X567006Y293632D02*
D03*
X561349Y299289D02*
D03*
X555692Y304945D02*
D03*
X550035Y310602D02*
D03*
X544378Y316259D02*
D03*
X484981Y256862D02*
D03*
X490638Y251205D02*
D03*
X496295Y245548D02*
D03*
X501952Y239891D02*
D03*
X507609Y234235D02*
D03*
X513266Y228578D02*
D03*
X518922Y222921D02*
D03*
X524579Y217264D02*
D03*
D44*
Y316259D02*
D03*
X518922Y310602D02*
D03*
X513266Y304945D02*
D03*
X507609Y299289D02*
D03*
X501952Y293632D02*
D03*
X496295Y287975D02*
D03*
X490638Y282318D02*
D03*
X484981Y276661D02*
D03*
X544378Y217264D02*
D03*
X550035Y222921D02*
D03*
X555692Y228578D02*
D03*
X561349Y234235D02*
D03*
X567006Y239891D02*
D03*
X572663Y245548D02*
D03*
X578319Y251205D02*
D03*
X583976Y256862D02*
D03*
D45*
X293000Y282000D02*
D03*
Y288500D02*
D03*
Y295000D02*
D03*
Y301500D02*
D03*
Y308000D02*
D03*
Y314500D02*
D03*
Y321000D02*
D03*
Y327500D02*
D03*
X236000Y282000D02*
D03*
Y288500D02*
D03*
Y295000D02*
D03*
Y301500D02*
D03*
Y308000D02*
D03*
Y314500D02*
D03*
Y321000D02*
D03*
D46*
Y327500D02*
D03*
D47*
X41500Y241170D02*
D03*
Y247670D02*
D03*
Y254170D02*
D03*
Y260670D02*
D03*
Y267170D02*
D03*
D48*
X14500Y225170D02*
D03*
Y283170D02*
D03*
D49*
Y244170D02*
D03*
Y264170D02*
D03*
D50*
X57170Y384040D02*
D03*
D65*
X315900Y103500D02*
D03*
X423800Y220000D02*
D03*
X437267Y203893D02*
D03*
X190250Y331250D02*
D03*
X59750Y227750D02*
D03*
X71250Y248250D02*
D03*
Y268750D02*
D03*
X59750Y289250D02*
D03*
X190250Y290250D02*
D03*
Y310750D02*
D03*
X198750Y71000D02*
D03*
X190250Y269750D02*
D03*
X134550Y449850D02*
D03*
X109150D02*
D03*
X134550Y475250D02*
D03*
X109150D02*
D03*
X83750D02*
D03*
X83750Y449850D02*
D03*
X353945Y245746D02*
D03*
D66*
X635000Y412750D02*
D03*
X558800D02*
D03*
X584200D02*
D03*
X609600D02*
D03*
X533400D02*
D03*
X508000D02*
D03*
X482600D02*
D03*
X635000Y438150D02*
D03*
X558800D02*
D03*
X584200D02*
D03*
X609600D02*
D03*
X533400D02*
D03*
X508000D02*
D03*
X482600D02*
D03*
X609600Y508000D02*
D03*
X584200D02*
D03*
X558800D02*
D03*
X533400D02*
D03*
X508000D02*
D03*
X457200D02*
D03*
X482600D02*
D03*
X596900Y95250D02*
D03*
X571500D02*
D03*
X546100D02*
D03*
X520700D02*
D03*
X495300D02*
D03*
X596900Y69850D02*
D03*
X571500D02*
D03*
X546100D02*
D03*
X520700D02*
D03*
X495300D02*
D03*
X264160Y438150D02*
D03*
X289560D02*
D03*
X314960D02*
D03*
X391160D02*
D03*
X365760D02*
D03*
X340360D02*
D03*
X416560D02*
D03*
X264160Y412750D02*
D03*
X289560D02*
D03*
X314960D02*
D03*
X391160D02*
D03*
X365760D02*
D03*
X340360D02*
D03*
X416560D02*
D03*
X391160Y508000D02*
D03*
X365760D02*
D03*
X340360D02*
D03*
X314960D02*
D03*
X289560D02*
D03*
X238760D02*
D03*
X264160D02*
D03*
X213360D02*
D03*
X187960D02*
D03*
X596900Y120650D02*
D03*
X571500D02*
D03*
X546100D02*
D03*
X520700D02*
D03*
X495300D02*
D03*
X533400Y25400D02*
D03*
X558800D02*
D03*
X584200D02*
D03*
X609600D02*
D03*
X635000D02*
D03*
Y463550D02*
D03*
X558800D02*
D03*
X584200D02*
D03*
X609600D02*
D03*
X533400D02*
D03*
X508000D02*
D03*
X482600D02*
D03*
X416560D02*
D03*
X340360D02*
D03*
X365760D02*
D03*
X391160D02*
D03*
X314960D02*
D03*
X289560D02*
D03*
X264160D02*
D03*
X304800Y25400D02*
D03*
X330200D02*
D03*
X355600D02*
D03*
X381000D02*
D03*
X406400D02*
D03*
X457200D02*
D03*
X431800D02*
D03*
D67*
X457200Y412750D02*
D03*
Y438150D02*
D03*
X635000Y508000D02*
D03*
X469900Y95250D02*
D03*
Y69850D02*
D03*
X238760Y438150D02*
D03*
Y412750D02*
D03*
X416560Y508000D02*
D03*
X469900Y120650D02*
D03*
X508000Y25400D02*
D03*
X457200Y463550D02*
D03*
X238760D02*
D03*
X279400Y25400D02*
D03*
D68*
X636270Y254000D02*
D03*
Y279400D02*
D03*
X661670Y304800D02*
D03*
Y279400D02*
D03*
Y254000D02*
D03*
D69*
X636270Y304800D02*
D03*
D70*
X86840Y35060D02*
D03*
X54340Y83060D02*
D03*
D71*
X116840D02*
D03*
D72*
X236300Y52000D02*
D03*
X210900D02*
D03*
D73*
X185500D02*
D03*
D74*
X656590Y168910D02*
D03*
Y123910D02*
D03*
D75*
X631590Y181410D02*
D03*
Y111410D02*
D03*
D76*
X14500Y219170D02*
D03*
Y289170D02*
D03*
D77*
X41500Y229170D02*
D03*
Y279170D02*
D03*
D78*
X45740Y453382D02*
D03*
M02*
