G04 Layer_Color=16711935*
%FSLAX44Y44*%
%MOMM*%
G71*
G01*
G75*
%ADD139C,0.1000*%
%ADD140C,0.9800*%
%ADD141C,1.6000*%
%ADD142R,1.6000X1.6000*%
%ADD143C,1.8000*%
%ADD144R,1.8000X1.8000*%
%ADD145C,4.7200*%
%ADD146C,5.4800*%
%ADD147C,1.4700*%
%ADD148R,1.4700X1.4700*%
%ADD149C,1.6400*%
%ADD150C,2.0300*%
%ADD151O,1.6500X1.0000*%
%ADD152O,1.0500X1.3500*%
%ADD153C,0.2000*%
%ADD154C,0.3000*%
%ADD155C,0.6500*%
%ADD156C,0.7500*%
D139*
X242900Y366700D02*
D03*
X442900D02*
D03*
Y166700D02*
D03*
X242900D02*
D03*
X152400Y508000D02*
D03*
X660400Y355600D02*
D03*
Y76200D02*
D03*
X139700Y25400D02*
D03*
D140*
X315900Y103500D02*
D03*
X423800Y220000D02*
D03*
X437267Y203893D02*
D03*
X190250Y331250D02*
D03*
X59750Y227750D02*
D03*
X71250Y248250D02*
D03*
Y268750D02*
D03*
X59750Y289250D02*
D03*
X190250Y290250D02*
D03*
Y310750D02*
D03*
X198750Y71000D02*
D03*
X190250Y269750D02*
D03*
X134550Y449850D02*
D03*
X109150D02*
D03*
X134550Y475250D02*
D03*
X109150D02*
D03*
X83750D02*
D03*
X83750Y449850D02*
D03*
X353945Y245746D02*
D03*
D141*
X635000Y412750D02*
D03*
X558800D02*
D03*
X584200D02*
D03*
X609600D02*
D03*
X533400D02*
D03*
X508000D02*
D03*
X482600D02*
D03*
X635000Y438150D02*
D03*
X558800D02*
D03*
X584200D02*
D03*
X609600D02*
D03*
X533400D02*
D03*
X508000D02*
D03*
X482600D02*
D03*
X609600Y508000D02*
D03*
X584200D02*
D03*
X558800D02*
D03*
X533400D02*
D03*
X508000D02*
D03*
X457200D02*
D03*
X482600D02*
D03*
X596900Y95250D02*
D03*
X571500D02*
D03*
X546100D02*
D03*
X520700D02*
D03*
X495300D02*
D03*
X596900Y69850D02*
D03*
X571500D02*
D03*
X546100D02*
D03*
X520700D02*
D03*
X495300D02*
D03*
X264160Y438150D02*
D03*
X289560D02*
D03*
X314960D02*
D03*
X391160D02*
D03*
X365760D02*
D03*
X340360D02*
D03*
X416560D02*
D03*
X264160Y412750D02*
D03*
X289560D02*
D03*
X314960D02*
D03*
X391160D02*
D03*
X365760D02*
D03*
X340360D02*
D03*
X416560D02*
D03*
X391160Y508000D02*
D03*
X365760D02*
D03*
X340360D02*
D03*
X314960D02*
D03*
X289560D02*
D03*
X238760D02*
D03*
X264160D02*
D03*
X213360D02*
D03*
X187960D02*
D03*
X596900Y120650D02*
D03*
X571500D02*
D03*
X546100D02*
D03*
X520700D02*
D03*
X495300D02*
D03*
X533400Y25400D02*
D03*
X558800D02*
D03*
X584200D02*
D03*
X609600D02*
D03*
X635000D02*
D03*
Y463550D02*
D03*
X558800D02*
D03*
X584200D02*
D03*
X609600D02*
D03*
X533400D02*
D03*
X508000D02*
D03*
X482600D02*
D03*
X416560D02*
D03*
X340360D02*
D03*
X365760D02*
D03*
X391160D02*
D03*
X314960D02*
D03*
X289560D02*
D03*
X264160D02*
D03*
X304800Y25400D02*
D03*
X330200D02*
D03*
X355600D02*
D03*
X381000D02*
D03*
X406400D02*
D03*
X457200D02*
D03*
X431800D02*
D03*
D142*
X457200Y412750D02*
D03*
Y438150D02*
D03*
X635000Y508000D02*
D03*
X469900Y95250D02*
D03*
Y69850D02*
D03*
X238760Y438150D02*
D03*
Y412750D02*
D03*
X416560Y508000D02*
D03*
X469900Y120650D02*
D03*
X508000Y25400D02*
D03*
X457200Y463550D02*
D03*
X238760D02*
D03*
X279400Y25400D02*
D03*
D143*
X636270Y254000D02*
D03*
Y279400D02*
D03*
X661670Y304800D02*
D03*
Y279400D02*
D03*
Y254000D02*
D03*
D144*
X636270Y304800D02*
D03*
D145*
X86840Y35060D02*
D03*
X54340Y83060D02*
D03*
D146*
X116840D02*
D03*
D147*
X236300Y52000D02*
D03*
X210900D02*
D03*
D148*
X185500D02*
D03*
D149*
X656590Y168910D02*
D03*
Y123910D02*
D03*
D150*
X631590Y181410D02*
D03*
Y111410D02*
D03*
D151*
X14500Y219170D02*
D03*
Y289170D02*
D03*
D152*
X41500Y229170D02*
D03*
Y279170D02*
D03*
D153*
X198600Y232200D02*
D03*
X207400Y205200D02*
D03*
X198600D02*
D03*
X217800Y262400D02*
D03*
X393750Y200500D02*
D03*
X321061Y262553D02*
D03*
X313042Y221400D02*
D03*
X471700Y338700D02*
D03*
X13460Y312500D02*
D03*
X309000Y204250D02*
D03*
Y212000D02*
D03*
X280250Y166250D02*
D03*
Y175083D02*
D03*
X290000Y192750D02*
D03*
X270750D02*
D03*
X295250Y165000D02*
D03*
X274000Y288500D02*
D03*
Y301500D02*
D03*
X266250Y295000D02*
D03*
X272500Y104750D02*
D03*
X78753Y258763D02*
D03*
X195250Y352250D02*
D03*
X190250Y418000D02*
D03*
X184500Y412250D02*
D03*
X120000Y261750D02*
D03*
Y248500D02*
D03*
X120750Y228750D02*
D03*
X596250Y224250D02*
D03*
X639353Y213250D02*
D03*
X555106Y263106D02*
D03*
X525000Y292750D02*
D03*
X532750Y286750D02*
D03*
X542750Y289500D02*
D03*
X552814Y254083D02*
D03*
X174000Y288500D02*
D03*
X534250Y248750D02*
D03*
X528500Y242000D02*
D03*
X428500Y248500D02*
D03*
X446500Y226750D02*
D03*
X359000Y357500D02*
D03*
X346000Y370250D02*
D03*
X452250Y234750D02*
D03*
X289250Y366500D02*
D03*
X567500Y216770D02*
D03*
X573834Y221750D02*
D03*
X552636Y271000D02*
D03*
X207500Y418000D02*
D03*
X434500Y242000D02*
D03*
X453750Y291250D02*
D03*
X206000Y443000D02*
D03*
X113750Y350250D02*
D03*
X110500Y199750D02*
D03*
X533500Y200000D02*
D03*
X546750Y244750D02*
D03*
X671000Y207500D02*
D03*
X77000Y423240D02*
D03*
X167000Y442000D02*
D03*
X268500Y341250D02*
D03*
X274000Y319750D02*
D03*
X78800Y358900D02*
D03*
X110500Y211000D02*
D03*
X101000Y313400D02*
D03*
X208250Y337250D02*
D03*
X56500Y398990D02*
D03*
Y406610D02*
D03*
Y414230D02*
D03*
Y421850D02*
D03*
Y429470D02*
D03*
Y437090D02*
D03*
Y444710D02*
D03*
Y452330D02*
D03*
Y459950D02*
D03*
Y467570D02*
D03*
Y475190D02*
D03*
Y482810D02*
D03*
Y490430D02*
D03*
Y498050D02*
D03*
Y505670D02*
D03*
Y513290D02*
D03*
Y520910D02*
D03*
X471700Y326400D02*
D03*
X533400Y158000D02*
D03*
X558800D02*
D03*
X584200D02*
D03*
X465500Y217750D02*
D03*
X51120Y351000D02*
D03*
X45740Y345500D02*
D03*
X40360Y340000D02*
D03*
X34980Y334500D02*
D03*
X29600Y329000D02*
D03*
X24220Y323500D02*
D03*
X18840Y318000D02*
D03*
X8080Y307000D02*
D03*
X120750Y199750D02*
D03*
X508000Y158000D02*
D03*
X77000Y432250D02*
D03*
X494250Y213032D02*
D03*
X68250Y414230D02*
D03*
X14100Y172025D02*
D03*
Y182962D02*
D03*
X102000Y240200D02*
D03*
X147250Y204656D02*
D03*
X151750Y311750D02*
D03*
X136250D02*
D03*
X403750Y376750D02*
D03*
Y385750D02*
D03*
X275000Y145500D02*
D03*
X152000Y320750D02*
D03*
X275000Y153250D02*
D03*
X376250Y317500D02*
D03*
X431250Y120500D02*
D03*
Y108750D02*
D03*
Y97000D02*
D03*
Y132250D02*
D03*
X77000Y414230D02*
D03*
X14100Y193900D02*
D03*
X363500Y230250D02*
D03*
X370750Y207750D02*
D03*
X300750Y355750D02*
D03*
X373357Y256750D02*
D03*
X254250Y288500D02*
D03*
X300750Y120191D02*
D03*
X310750Y173500D02*
D03*
X106750Y258000D02*
D03*
X77500Y226750D02*
D03*
X250250Y308000D02*
D03*
X218750Y301500D02*
D03*
X176203Y270016D02*
D03*
X308750Y327500D02*
D03*
X218750Y311250D02*
D03*
X206750Y285750D02*
D03*
X272500Y96000D02*
D03*
X256750Y104750D02*
D03*
Y96000D02*
D03*
X237750Y7500D02*
D03*
Y24500D02*
D03*
X355267Y266500D02*
D03*
X354000Y207750D02*
D03*
X434113Y76363D02*
D03*
X78600Y369700D02*
D03*
X140250Y280250D02*
D03*
X133000D02*
D03*
X162900Y343800D02*
D03*
X176000D02*
D03*
X14100Y161087D02*
D03*
Y150150D02*
D03*
X341800Y251600D02*
D03*
X328600Y234100D02*
D03*
X147500Y188500D02*
D03*
X156200D02*
D03*
X223500Y231300D02*
D03*
X56500Y356500D02*
D03*
X164900Y188500D02*
D03*
X576500Y319750D02*
D03*
X586000Y327750D02*
D03*
X588600Y343800D02*
D03*
X608300Y374900D02*
D03*
X582700Y349300D02*
D03*
X165800Y198000D02*
D03*
X394964Y247942D02*
D03*
Y285161D02*
D03*
X397112Y298488D02*
D03*
X191500Y383000D02*
D03*
X199250Y383000D02*
D03*
X56500Y364980D02*
D03*
Y373979D02*
D03*
X608750Y240000D02*
D03*
X600665Y231165D02*
D03*
X206400Y153650D02*
D03*
X237400Y71000D02*
D03*
X140250Y222403D02*
D03*
X177100Y233600D02*
D03*
D154*
X305000Y73750D02*
D03*
X289750Y81250D02*
D03*
D155*
X154125Y257375D02*
D03*
X141375Y244625D02*
D03*
X154125Y244625D02*
D03*
X141375Y257375D02*
D03*
D156*
X264530Y213750D02*
D03*
Y241750D02*
D03*
X273530Y227750D02*
D03*
X255530D02*
D03*
Y213750D02*
D03*
X273530D02*
D03*
Y241750D02*
D03*
X255530D02*
D03*
X264530Y252750D02*
D03*
X273530D02*
D03*
X255530D02*
D03*
X131250Y399250D02*
D03*
X142250D02*
D03*
X153250D02*
D03*
X164250D02*
D03*
X131250Y388250D02*
D03*
X142250D02*
D03*
X153250D02*
D03*
X164250D02*
D03*
X131250Y377250D02*
D03*
X142250D02*
D03*
X153250D02*
D03*
X164250D02*
D03*
X131250Y366250D02*
D03*
X142250D02*
D03*
X153250D02*
D03*
X164250D02*
D03*
X264530Y227750D02*
D03*
M02*
