G04 Layer_Color=8388736*
%FSLAX44Y44*%
%MOMM*%
G71*
G01*
G75*
%ADD99R,0.6000X0.5500*%
%ADD100R,0.5500X0.6000*%
%ADD101R,1.3000X1.7000*%
%ADD102R,1.7000X1.3000*%
%ADD103R,0.9000X0.7500*%
%ADD104C,3.0000*%
G04:AMPARAMS|DCode=105|XSize=0.75mm|YSize=0.9mm|CornerRadius=0mm|HoleSize=0mm|Usage=FLASHONLY|Rotation=135.000|XOffset=0mm|YOffset=0mm|HoleType=Round|Shape=Rectangle|*
%AMROTATEDRECTD105*
4,1,4,0.5834,0.0530,-0.0530,-0.5834,-0.5834,-0.0530,0.0530,0.5834,0.5834,0.0530,0.0*
%
%ADD105ROTATEDRECTD105*%

G04:AMPARAMS|DCode=106|XSize=0.55mm|YSize=0.6mm|CornerRadius=0mm|HoleSize=0mm|Usage=FLASHONLY|Rotation=135.000|XOffset=0mm|YOffset=0mm|HoleType=Round|Shape=Rectangle|*
%AMROTATEDRECTD106*
4,1,4,0.4066,0.0177,-0.0177,-0.4066,-0.4066,-0.0177,0.0177,0.4066,0.4066,0.0177,0.0*
%
%ADD106ROTATEDRECTD106*%

%ADD107R,0.7500X0.9000*%
%ADD108R,1.1000X1.5000*%
%ADD109R,0.9000X0.9000*%
%ADD110R,1.5000X1.1000*%
%ADD111R,1.6000X3.3000*%
%ADD112R,0.9000X0.9000*%
%ADD113R,2.2000X1.3000*%
%ADD114R,1.5000X1.3000*%
%ADD115R,0.3500X0.6500*%
%ADD116R,1.2000X1.3500*%
%ADD117R,2.9000X1.5000*%
%ADD118R,3.6000X1.1000*%
%ADD119R,1.0000X0.9000*%
%ADD120R,4.7200X4.7200*%
%ADD121O,0.3200X0.9700*%
%ADD122O,0.9700X0.3200*%
%ADD123R,2.6500X2.6500*%
%ADD124O,0.3500X0.9000*%
%ADD125O,0.9000X0.3500*%
G04:AMPARAMS|DCode=126|XSize=0.4mm|YSize=1.7mm|CornerRadius=0mm|HoleSize=0mm|Usage=FLASHONLY|Rotation=315.000|XOffset=0mm|YOffset=0mm|HoleType=Round|Shape=Rectangle|*
%AMROTATEDRECTD126*
4,1,4,-0.7425,-0.4596,0.4596,0.7425,0.7425,0.4596,-0.4596,-0.7425,-0.7425,-0.4596,0.0*
%
%ADD126ROTATEDRECTD126*%

%ADD127R,2.7200X3.6100*%
%ADD128R,1.7000X0.7100*%
%ADD129R,0.6000X0.4000*%
%ADD130R,0.7000X0.4000*%
%ADD131R,2.3000X8.1000*%
G04:AMPARAMS|DCode=132|XSize=0.65mm|YSize=1.75mm|CornerRadius=0mm|HoleSize=0mm|Usage=FLASHONLY|Rotation=315.000|XOffset=0mm|YOffset=0mm|HoleType=Round|Shape=Round|*
%AMOVALD132*
21,1,1.1000,0.6500,0.0000,0.0000,45.0*
1,1,0.6500,-0.3889,-0.3889*
1,1,0.6500,0.3889,0.3889*
%
%ADD132OVALD132*%

G04:AMPARAMS|DCode=133|XSize=0.65mm|YSize=1.75mm|CornerRadius=0mm|HoleSize=0mm|Usage=FLASHONLY|Rotation=225.000|XOffset=0mm|YOffset=0mm|HoleType=Round|Shape=Round|*
%AMOVALD133*
21,1,1.1000,0.6500,0.0000,0.0000,315.0*
1,1,0.6500,-0.3889,0.3889*
1,1,0.6500,0.3889,-0.3889*
%
%ADD133OVALD133*%

%ADD134O,1.8000X0.4500*%
%ADD135R,1.8000X0.4500*%
%ADD136R,1.4500X0.5000*%
%ADD137R,1.6500X1.3000*%
%ADD138R,1.6500X1.6000*%
%ADD139C,0.1000*%
%ADD140C,0.9800*%
%ADD141C,1.6000*%
%ADD142R,1.6000X1.6000*%
%ADD143C,1.8000*%
%ADD144R,1.8000X1.8000*%
%ADD145C,4.7200*%
%ADD146C,5.4800*%
%ADD147C,1.4700*%
%ADD148R,1.4700X1.4700*%
%ADD149C,1.6400*%
%ADD150C,2.0300*%
%ADD151O,1.6500X1.0000*%
%ADD152O,1.0500X1.3500*%
%ADD153C,0.2000*%
%ADD154C,0.3000*%
%ADD155C,0.6500*%
%ADD156C,0.7500*%
D99*
X349843Y297750D02*
D03*
Y307250D02*
D03*
X308006Y91193D02*
D03*
Y81693D02*
D03*
X77000Y402500D02*
D03*
Y393000D02*
D03*
X103000Y408500D02*
D03*
Y418000D02*
D03*
X121750Y218750D02*
D03*
Y209250D02*
D03*
X113000Y263250D02*
D03*
Y272750D02*
D03*
X112250Y251250D02*
D03*
Y241750D02*
D03*
X349843Y285000D02*
D03*
Y275500D02*
D03*
X180250Y455250D02*
D03*
Y445750D02*
D03*
X321305Y285000D02*
D03*
Y275500D02*
D03*
X336500Y285000D02*
D03*
Y275500D02*
D03*
X317142Y81693D02*
D03*
Y91193D02*
D03*
X651750Y218250D02*
D03*
Y208750D02*
D03*
X91000Y408500D02*
D03*
Y418000D02*
D03*
X68000Y393000D02*
D03*
Y402500D02*
D03*
X309250Y246750D02*
D03*
Y256250D02*
D03*
X321000D02*
D03*
Y246750D02*
D03*
X333000Y256250D02*
D03*
Y246750D02*
D03*
X184700Y242550D02*
D03*
Y233050D02*
D03*
X326278Y81693D02*
D03*
Y91193D02*
D03*
X177100Y214300D02*
D03*
Y223800D02*
D03*
D100*
X373357Y266500D02*
D03*
X363857D02*
D03*
X38033Y161178D02*
D03*
X47533D02*
D03*
X322426Y70083D02*
D03*
X312926D02*
D03*
X127250Y333750D02*
D03*
X117750D02*
D03*
X167000Y214300D02*
D03*
X157500D02*
D03*
X385464Y266500D02*
D03*
X394964D02*
D03*
X320250Y182000D02*
D03*
X310750D02*
D03*
X102250Y364750D02*
D03*
X92750D02*
D03*
X127250Y321750D02*
D03*
X117750D02*
D03*
X287250Y69750D02*
D03*
X296750D02*
D03*
X283250Y102250D02*
D03*
X292750D02*
D03*
X208250Y327500D02*
D03*
X217750D02*
D03*
X310750Y193500D02*
D03*
X320250D02*
D03*
X162250Y321000D02*
D03*
X171750D02*
D03*
X101750Y428750D02*
D03*
X92250D02*
D03*
X67750Y384000D02*
D03*
X77250D02*
D03*
X310750Y234100D02*
D03*
X320250D02*
D03*
X228050Y262400D02*
D03*
X237550D02*
D03*
X382750Y243900D02*
D03*
X373250D02*
D03*
D101*
X319500Y146250D02*
D03*
X287500D02*
D03*
X319500Y120191D02*
D03*
X287500D02*
D03*
D102*
X237400Y118300D02*
D03*
Y86300D02*
D03*
D103*
X272500Y83500D02*
D03*
Y70000D02*
D03*
X136250Y302250D02*
D03*
Y288750D02*
D03*
X139500Y333500D02*
D03*
Y320000D02*
D03*
X195250Y405000D02*
D03*
Y391500D02*
D03*
X162250Y288750D02*
D03*
Y302250D02*
D03*
X195250Y361000D02*
D03*
Y374500D02*
D03*
D104*
X533500Y363000D02*
D03*
X36000Y25250D02*
D03*
X92250Y510000D02*
D03*
D105*
X468977Y230523D02*
D03*
X478523Y220977D02*
D03*
X586091Y299805D02*
D03*
X576545Y309351D02*
D03*
X570477Y347023D02*
D03*
X580023Y337477D02*
D03*
D106*
X478391Y239609D02*
D03*
X485109Y232891D02*
D03*
X592359Y312391D02*
D03*
X585641Y319109D02*
D03*
X492891Y225109D02*
D03*
X499609Y218391D02*
D03*
D107*
X133750Y214300D02*
D03*
X147250D02*
D03*
X293000Y341000D02*
D03*
X279500D02*
D03*
X86250Y211000D02*
D03*
X99750D02*
D03*
X271000Y124000D02*
D03*
X257500D02*
D03*
D108*
X373357Y282098D02*
D03*
X363857Y304098D02*
D03*
X382857D02*
D03*
D109*
X193750Y455250D02*
D03*
Y439250D02*
D03*
X321305Y315390D02*
D03*
Y299390D02*
D03*
X336545Y315390D02*
D03*
Y299390D02*
D03*
D110*
X382750Y193250D02*
D03*
Y174250D02*
D03*
X404750Y183750D02*
D03*
X382750Y229500D02*
D03*
Y210500D02*
D03*
X404750Y220000D02*
D03*
X341500Y229500D02*
D03*
Y210500D02*
D03*
X363500Y220000D02*
D03*
Y183750D02*
D03*
X341500Y174250D02*
D03*
Y193250D02*
D03*
D111*
X119250Y296500D02*
D03*
X77250D02*
D03*
Y172800D02*
D03*
X119250D02*
D03*
D112*
X155750Y332750D02*
D03*
X171750D02*
D03*
X51324Y174485D02*
D03*
X35324D02*
D03*
D113*
X206400Y128550D02*
D03*
Y84550D02*
D03*
X174150Y128550D02*
D03*
Y84550D02*
D03*
D114*
X101000Y327250D02*
D03*
X79000D02*
D03*
Y344250D02*
D03*
X101000D02*
D03*
D115*
X90000Y392250D02*
D03*
X95000D02*
D03*
X100000D02*
D03*
Y383750D02*
D03*
X95000D02*
D03*
X90000D02*
D03*
D116*
X109000Y226750D02*
D03*
X88000D02*
D03*
X101000Y145200D02*
D03*
X122000D02*
D03*
D117*
X208832Y218827D02*
D03*
Y244827D02*
D03*
D118*
X195800Y170800D02*
D03*
X149800D02*
D03*
D119*
X149250Y288500D02*
D03*
Y302500D02*
D03*
D120*
X147750Y382750D02*
D03*
D121*
X169750Y353750D02*
D03*
X165750D02*
D03*
X161750D02*
D03*
X157750D02*
D03*
X153750D02*
D03*
X149750D02*
D03*
X145750D02*
D03*
X141750D02*
D03*
X137750D02*
D03*
X133750D02*
D03*
X129750D02*
D03*
X125750D02*
D03*
Y411750D02*
D03*
X129750D02*
D03*
X133750D02*
D03*
X137750D02*
D03*
X141750D02*
D03*
X145750D02*
D03*
X149750D02*
D03*
X153750D02*
D03*
X157750D02*
D03*
X161750D02*
D03*
X165750D02*
D03*
X169750D02*
D03*
D122*
X118750Y360750D02*
D03*
Y364750D02*
D03*
Y368750D02*
D03*
Y372750D02*
D03*
Y376750D02*
D03*
Y380750D02*
D03*
Y384750D02*
D03*
Y388750D02*
D03*
Y392750D02*
D03*
Y396750D02*
D03*
Y400750D02*
D03*
Y404750D02*
D03*
X176750D02*
D03*
Y400750D02*
D03*
Y396750D02*
D03*
Y392750D02*
D03*
Y388750D02*
D03*
Y384750D02*
D03*
Y380750D02*
D03*
Y376750D02*
D03*
Y372750D02*
D03*
Y368750D02*
D03*
Y364750D02*
D03*
Y360750D02*
D03*
D123*
X147750Y251000D02*
D03*
D124*
X135250Y270500D02*
D03*
X140250D02*
D03*
X145250D02*
D03*
X150250D02*
D03*
X155250D02*
D03*
X160250D02*
D03*
Y231500D02*
D03*
X155250D02*
D03*
X150250D02*
D03*
X145250D02*
D03*
X140250D02*
D03*
X135250D02*
D03*
D125*
X167250Y263500D02*
D03*
Y258500D02*
D03*
Y253500D02*
D03*
Y248500D02*
D03*
Y243500D02*
D03*
Y238500D02*
D03*
X128250D02*
D03*
Y243500D02*
D03*
Y248500D02*
D03*
Y253500D02*
D03*
Y258500D02*
D03*
Y263500D02*
D03*
D126*
X555783Y335718D02*
D03*
X569217Y322282D02*
D03*
X562500Y329000D02*
D03*
D127*
X264530Y227750D02*
D03*
D128*
X291530Y208700D02*
D03*
Y221400D02*
D03*
Y234100D02*
D03*
Y246800D02*
D03*
X237530Y208700D02*
D03*
Y221400D02*
D03*
Y234100D02*
D03*
Y246800D02*
D03*
D129*
X85750Y253500D02*
D03*
Y258500D02*
D03*
Y263500D02*
D03*
X99750D02*
D03*
Y258500D02*
D03*
Y253500D02*
D03*
D130*
X297000Y91250D02*
D03*
Y86250D02*
D03*
Y81250D02*
D03*
X283000D02*
D03*
Y86250D02*
D03*
Y91250D02*
D03*
D131*
X406700Y107800D02*
D03*
X349700D02*
D03*
D132*
X583976Y276661D02*
D03*
X578319Y282318D02*
D03*
X572663Y287975D02*
D03*
X567006Y293632D02*
D03*
X561349Y299289D02*
D03*
X555692Y304945D02*
D03*
X550035Y310602D02*
D03*
X544378Y316259D02*
D03*
X484981Y256862D02*
D03*
X490638Y251205D02*
D03*
X496295Y245548D02*
D03*
X501952Y239891D02*
D03*
X507609Y234235D02*
D03*
X513266Y228578D02*
D03*
X518922Y222921D02*
D03*
X524579Y217264D02*
D03*
D133*
Y316259D02*
D03*
X518922Y310602D02*
D03*
X513266Y304945D02*
D03*
X507609Y299289D02*
D03*
X501952Y293632D02*
D03*
X496295Y287975D02*
D03*
X490638Y282318D02*
D03*
X484981Y276661D02*
D03*
X544378Y217264D02*
D03*
X550035Y222921D02*
D03*
X555692Y228578D02*
D03*
X561349Y234235D02*
D03*
X567006Y239891D02*
D03*
X572663Y245548D02*
D03*
X578319Y251205D02*
D03*
X583976Y256862D02*
D03*
D134*
X293000Y282000D02*
D03*
Y288500D02*
D03*
Y295000D02*
D03*
Y301500D02*
D03*
Y308000D02*
D03*
Y314500D02*
D03*
Y321000D02*
D03*
Y327500D02*
D03*
X236000Y282000D02*
D03*
Y288500D02*
D03*
Y295000D02*
D03*
Y301500D02*
D03*
Y308000D02*
D03*
Y314500D02*
D03*
Y321000D02*
D03*
D135*
Y327500D02*
D03*
D136*
X41500Y241170D02*
D03*
Y247670D02*
D03*
Y254170D02*
D03*
Y260670D02*
D03*
Y267170D02*
D03*
D137*
X14500Y225170D02*
D03*
Y283170D02*
D03*
D138*
Y244170D02*
D03*
Y264170D02*
D03*
D139*
X242900Y366700D02*
D03*
X442900D02*
D03*
Y166700D02*
D03*
X242900D02*
D03*
X152400Y508000D02*
D03*
X660400Y355600D02*
D03*
Y76200D02*
D03*
X139700Y25400D02*
D03*
D140*
X315900Y103500D02*
D03*
X423800Y220000D02*
D03*
X437267Y203893D02*
D03*
X190250Y331250D02*
D03*
X59750Y227750D02*
D03*
X71250Y248250D02*
D03*
Y268750D02*
D03*
X59750Y289250D02*
D03*
X190250Y290250D02*
D03*
Y310750D02*
D03*
X198750Y71000D02*
D03*
X190250Y269750D02*
D03*
X134550Y449850D02*
D03*
X109150D02*
D03*
X134550Y475250D02*
D03*
X109150D02*
D03*
X83750D02*
D03*
X83750Y449850D02*
D03*
X353945Y245746D02*
D03*
D141*
X635000Y412750D02*
D03*
X558800D02*
D03*
X584200D02*
D03*
X609600D02*
D03*
X533400D02*
D03*
X508000D02*
D03*
X482600D02*
D03*
X635000Y438150D02*
D03*
X558800D02*
D03*
X584200D02*
D03*
X609600D02*
D03*
X533400D02*
D03*
X508000D02*
D03*
X482600D02*
D03*
X609600Y508000D02*
D03*
X584200D02*
D03*
X558800D02*
D03*
X533400D02*
D03*
X508000D02*
D03*
X457200D02*
D03*
X482600D02*
D03*
X596900Y95250D02*
D03*
X571500D02*
D03*
X546100D02*
D03*
X520700D02*
D03*
X495300D02*
D03*
X596900Y69850D02*
D03*
X571500D02*
D03*
X546100D02*
D03*
X520700D02*
D03*
X495300D02*
D03*
X264160Y438150D02*
D03*
X289560D02*
D03*
X314960D02*
D03*
X391160D02*
D03*
X365760D02*
D03*
X340360D02*
D03*
X416560D02*
D03*
X264160Y412750D02*
D03*
X289560D02*
D03*
X314960D02*
D03*
X391160D02*
D03*
X365760D02*
D03*
X340360D02*
D03*
X416560D02*
D03*
X391160Y508000D02*
D03*
X365760D02*
D03*
X340360D02*
D03*
X314960D02*
D03*
X289560D02*
D03*
X238760D02*
D03*
X264160D02*
D03*
X213360D02*
D03*
X187960D02*
D03*
X596900Y120650D02*
D03*
X571500D02*
D03*
X546100D02*
D03*
X520700D02*
D03*
X495300D02*
D03*
X533400Y25400D02*
D03*
X558800D02*
D03*
X584200D02*
D03*
X609600D02*
D03*
X635000D02*
D03*
Y463550D02*
D03*
X558800D02*
D03*
X584200D02*
D03*
X609600D02*
D03*
X533400D02*
D03*
X508000D02*
D03*
X482600D02*
D03*
X416560D02*
D03*
X340360D02*
D03*
X365760D02*
D03*
X391160D02*
D03*
X314960D02*
D03*
X289560D02*
D03*
X264160D02*
D03*
X304800Y25400D02*
D03*
X330200D02*
D03*
X355600D02*
D03*
X381000D02*
D03*
X406400D02*
D03*
X457200D02*
D03*
X431800D02*
D03*
D142*
X457200Y412750D02*
D03*
Y438150D02*
D03*
X635000Y508000D02*
D03*
X469900Y95250D02*
D03*
Y69850D02*
D03*
X238760Y438150D02*
D03*
Y412750D02*
D03*
X416560Y508000D02*
D03*
X469900Y120650D02*
D03*
X508000Y25400D02*
D03*
X457200Y463550D02*
D03*
X238760D02*
D03*
X279400Y25400D02*
D03*
D143*
X636270Y254000D02*
D03*
Y279400D02*
D03*
X661670Y304800D02*
D03*
Y279400D02*
D03*
Y254000D02*
D03*
D144*
X636270Y304800D02*
D03*
D145*
X86840Y35060D02*
D03*
X54340Y83060D02*
D03*
D146*
X116840D02*
D03*
D147*
X236300Y52000D02*
D03*
X210900D02*
D03*
D148*
X185500D02*
D03*
D149*
X656590Y168910D02*
D03*
Y123910D02*
D03*
D150*
X631590Y181410D02*
D03*
Y111410D02*
D03*
D151*
X14500Y219170D02*
D03*
Y289170D02*
D03*
D152*
X41500Y229170D02*
D03*
Y279170D02*
D03*
D153*
X198600Y232200D02*
D03*
X207400Y205200D02*
D03*
X198600D02*
D03*
X217800Y262400D02*
D03*
X393750Y200500D02*
D03*
X321061Y262553D02*
D03*
X313042Y221400D02*
D03*
X471700Y338700D02*
D03*
X13460Y312500D02*
D03*
X309000Y204250D02*
D03*
Y212000D02*
D03*
X280250Y166250D02*
D03*
Y175083D02*
D03*
X290000Y192750D02*
D03*
X270750D02*
D03*
X295250Y165000D02*
D03*
X274000Y288500D02*
D03*
Y301500D02*
D03*
X266250Y295000D02*
D03*
X272500Y104750D02*
D03*
X78753Y258763D02*
D03*
X195250Y352250D02*
D03*
X190250Y418000D02*
D03*
X184500Y412250D02*
D03*
X120000Y261750D02*
D03*
Y248500D02*
D03*
X120750Y228750D02*
D03*
X596250Y224250D02*
D03*
X639353Y213250D02*
D03*
X555106Y263106D02*
D03*
X525000Y292750D02*
D03*
X532750Y286750D02*
D03*
X542750Y289500D02*
D03*
X552814Y254083D02*
D03*
X174000Y288500D02*
D03*
X534250Y248750D02*
D03*
X528500Y242000D02*
D03*
X428500Y248500D02*
D03*
X446500Y226750D02*
D03*
X359000Y357500D02*
D03*
X346000Y370250D02*
D03*
X452250Y234750D02*
D03*
X289250Y366500D02*
D03*
X567500Y216770D02*
D03*
X573834Y221750D02*
D03*
X552636Y271000D02*
D03*
X207500Y418000D02*
D03*
X434500Y242000D02*
D03*
X453750Y291250D02*
D03*
X206000Y443000D02*
D03*
X113750Y350250D02*
D03*
X110500Y199750D02*
D03*
X533500Y200000D02*
D03*
X546750Y244750D02*
D03*
X671000Y207500D02*
D03*
X77000Y423240D02*
D03*
X167000Y442000D02*
D03*
X268500Y341250D02*
D03*
X274000Y319750D02*
D03*
X78800Y358900D02*
D03*
X110500Y211000D02*
D03*
X101000Y313400D02*
D03*
X208250Y337250D02*
D03*
X56500Y398990D02*
D03*
Y406610D02*
D03*
Y414230D02*
D03*
Y421850D02*
D03*
Y429470D02*
D03*
Y437090D02*
D03*
Y444710D02*
D03*
Y452330D02*
D03*
Y459950D02*
D03*
Y467570D02*
D03*
Y475190D02*
D03*
Y482810D02*
D03*
Y490430D02*
D03*
Y498050D02*
D03*
Y505670D02*
D03*
Y513290D02*
D03*
Y520910D02*
D03*
X471700Y326400D02*
D03*
X533400Y158000D02*
D03*
X558800D02*
D03*
X584200D02*
D03*
X465500Y217750D02*
D03*
X51120Y351000D02*
D03*
X45740Y345500D02*
D03*
X40360Y340000D02*
D03*
X34980Y334500D02*
D03*
X29600Y329000D02*
D03*
X24220Y323500D02*
D03*
X18840Y318000D02*
D03*
X8080Y307000D02*
D03*
X120750Y199750D02*
D03*
X508000Y158000D02*
D03*
X77000Y432250D02*
D03*
X494250Y213032D02*
D03*
X68250Y414230D02*
D03*
X14100Y172025D02*
D03*
Y182962D02*
D03*
X102000Y240200D02*
D03*
X147250Y204656D02*
D03*
X151750Y311750D02*
D03*
X136250D02*
D03*
X403750Y376750D02*
D03*
Y385750D02*
D03*
X275000Y145500D02*
D03*
X152000Y320750D02*
D03*
X275000Y153250D02*
D03*
X376250Y317500D02*
D03*
X431250Y120500D02*
D03*
Y108750D02*
D03*
Y97000D02*
D03*
Y132250D02*
D03*
X77000Y414230D02*
D03*
X14100Y193900D02*
D03*
X363500Y230250D02*
D03*
X370750Y207750D02*
D03*
X300750Y355750D02*
D03*
X373357Y256750D02*
D03*
X254250Y288500D02*
D03*
X300750Y120191D02*
D03*
X310750Y173500D02*
D03*
X106750Y258000D02*
D03*
X77500Y226750D02*
D03*
X250250Y308000D02*
D03*
X218750Y301500D02*
D03*
X176203Y270016D02*
D03*
X308750Y327500D02*
D03*
X218750Y311250D02*
D03*
X206750Y285750D02*
D03*
X272500Y96000D02*
D03*
X256750Y104750D02*
D03*
Y96000D02*
D03*
X237750Y7500D02*
D03*
Y24500D02*
D03*
X355267Y266500D02*
D03*
X354000Y207750D02*
D03*
X434113Y76363D02*
D03*
X78600Y369700D02*
D03*
X140250Y280250D02*
D03*
X133000D02*
D03*
X162900Y343800D02*
D03*
X176000D02*
D03*
X14100Y161087D02*
D03*
Y150150D02*
D03*
X341800Y251600D02*
D03*
X328600Y234100D02*
D03*
X147500Y188500D02*
D03*
X156200D02*
D03*
X223500Y231300D02*
D03*
X56500Y356500D02*
D03*
X164900Y188500D02*
D03*
X576500Y319750D02*
D03*
X586000Y327750D02*
D03*
X588600Y343800D02*
D03*
X608300Y374900D02*
D03*
X582700Y349300D02*
D03*
X165800Y198000D02*
D03*
X394964Y247942D02*
D03*
Y285161D02*
D03*
X397112Y298488D02*
D03*
X191500Y383000D02*
D03*
X199250Y383000D02*
D03*
X56500Y364980D02*
D03*
Y373979D02*
D03*
X608750Y240000D02*
D03*
X600665Y231165D02*
D03*
X206400Y153650D02*
D03*
X237400Y71000D02*
D03*
X140250Y222403D02*
D03*
X177100Y233600D02*
D03*
D154*
X305000Y73750D02*
D03*
X289750Y81250D02*
D03*
D155*
X154125Y257375D02*
D03*
X141375Y244625D02*
D03*
X154125Y244625D02*
D03*
X141375Y257375D02*
D03*
D156*
X264530Y213750D02*
D03*
Y241750D02*
D03*
X273530Y227750D02*
D03*
X255530D02*
D03*
Y213750D02*
D03*
X273530D02*
D03*
Y241750D02*
D03*
X255530D02*
D03*
X264530Y252750D02*
D03*
X273530D02*
D03*
X255530D02*
D03*
X131250Y399250D02*
D03*
X142250D02*
D03*
X153250D02*
D03*
X164250D02*
D03*
X131250Y388250D02*
D03*
X142250D02*
D03*
X153250D02*
D03*
X164250D02*
D03*
X131250Y377250D02*
D03*
X142250D02*
D03*
X153250D02*
D03*
X164250D02*
D03*
X131250Y366250D02*
D03*
X142250D02*
D03*
X153250D02*
D03*
X164250D02*
D03*
X264530Y227750D02*
D03*
M02*
