M48
;Layer_Color=9474304
;FILE_FORMAT=4:4
METRIC,LZ
;TYPE=PLATED
T1F00S00C0.1500
T2F00S00C0.2000
T3F00S00C0.3000
T4F00S00C0.3000
T8F00S00C0.8500
T9F00S00C0.9000
T10F00S00C1.0000
T11F00S00C1.1000
T12F00S00C1.3000
T13F00S00C3.0500
T14F00S00C3.5600
;TYPE=NON_PLATED
T15F00S00C3.3000
%
T01
X0004574Y00453382
T02
X00671Y002075
X00639353Y0021325
X0059625Y0022425
X00600665Y00231165
X0060875Y0024
X00573834Y0022175
X005675Y0021677
X0054675Y0024475
X00552814Y00254083
X00555106Y00263106
X00552636Y00271
X0054275Y002895
X0053275Y0028675
X00525Y0029275
X0053425Y0024875
X005285Y00242
X005335Y002
X005334Y00158
X005588
X005842
X00508
X0049425Y00213032
X004655Y0021775
X004465Y0022675
X0045225Y0023475
X004345Y00242
X004285Y002485
X00394964Y00247942
X00373357Y0025675
X00355267Y002665
X003418Y002516
X003286Y002341
X00313042Y002214
X00309Y00212
Y0020425
X0029Y0019275
X0027075
X0028025Y00175083
Y0016625
X0029525Y00165
X0031075Y001735
X00275Y0015325
Y001455
X002725Y0010475
Y00096
X0028975Y0008125
X0030075Y00120191
X0043125Y001205
Y0010875
Y00097
X00434113Y00076363
X0043125Y0013225
X0039375Y002005
X0037075Y0020775
X00354
X003635Y0023025
X00321061Y00262553
X00274Y002885
Y003015
X00274Y0031975
X0030875Y003275
X0030075Y0035575
X0028925Y003665
X00346Y0037025
X00359Y003575
X0037625Y003175
X00397112Y00298488
X00394964Y00285161
X0045375Y0029125
X004717Y003264
Y003387
X005827Y003493
X005886Y003438
X00586Y0032775
X005765Y0031975
X002685Y0034125
X0026625Y00295
X0025425Y002885
X0025025Y00308
X0021875Y0031125
Y003015
X0020675Y0028575
X002178Y002624
X002235Y002313
X001986Y002322
X001771Y002336
X00154125Y00244625
X00154125Y00257375
X00141375Y00257375
X00141375Y00244625
X0014025Y00222403
X0014725Y00204656
X001475Y001885
X001562
X001649
X001658Y00198
X001986Y002052
X002074
X002064Y0015365
X0025675Y0010475
Y00096
X002374Y00071
X0023775Y000245
Y000075
X0012075Y0019975
X001105
Y00211
X0012075Y0022875
X0012Y002485
Y0026175
X0010675Y00258
X00102Y002402
X000775Y0022675
X00078753Y00258763
X00133Y0028025
X0014025
X0013625Y0031175
X0015175
X00152Y0032075
X001629Y003438
X00176
X0019525Y0035225
X0020825Y0033725
X00174Y002885
X00176203Y00270016
X00101Y003134
X0011375Y0035025
X000788Y003589
X000786Y003697
X000565Y0036498
Y003565
X0005112Y00351
X0004574Y003455
X0004036Y0034
X0003498Y003345
X000296Y00329
X0002422Y003235
X0001884Y00318
X0001346Y003125
X0000808Y00307
X000141Y001939
Y00182962
Y00172025
Y00161087
Y0015015
X000565Y00373979
Y0039899
Y0040661
Y0041423
Y0042185
Y0042947
Y0043709
Y0044471
Y0045233
Y0045995
Y0046757
Y0047519
Y0048281
Y0049043
Y0049805
Y0050567
Y0051329
Y0052091
X00077Y0043225
Y0042324
Y0041423
X0006825
X001845Y0041225
X0019025Y00418
X002075
X00206Y00443
X00167Y00442
X001915Y00383
X0019925Y00383
X0040375Y0038575
Y0037675
X006083Y003749
T03
X00305Y0007375
X0027353Y0021375
Y0022775
Y0024175
Y0025275
X0026453
X0025553
Y0024175
X0026453
Y0022775
X0025553
Y0021375
X0026453
X0016425Y0036625
X0015325
X0014225
X0013125
Y0037725
Y0038825
Y0039925
X0014225
X0015325
X0016425
Y0038825
X0015325
X0014225
Y0037725
X0015325
X0016425
T04
X003159Y001035
X00353945Y00245746
X004238Y0022
X00437267Y00203893
X0019025Y0026975
Y0029025
Y0031075
Y0033125
X0005975Y0028925
X0007125Y0026875
Y0024825
X0005975Y0022775
X0019875Y00071
X0013455Y0044985
X0010915
Y0047525
X0008375
X0008375Y0044985
X0013455Y0047525
T08
X001855Y00052
X002109
X002363
T09
X002794Y000254
X003048
X003302
X003556
X00381
X004064
X004318
X004572
X00508
X005334
X005588
X005842
X006096
X00635
X005969Y0006985
Y0009525
X005715
X005461
X005207
X004953
X004699
Y0006985
X004953
X005207
X005461
X005715
Y0012065
X005969
X005461
X005207
X004953
X004699
X0026416Y0041275
Y0043815
X0023876
Y0041275
Y0046355
X0026416
Y00508
X0023876
X0021336
X0018796
X0028956
X0031496
X0034036
X0036576
X0039116
X0041656
X004572
X004826
X00508
X005334
X005588
X005842
X006096
X00635
Y0046355
Y0043815
Y0041275
X006096
X005842
X005588
X005334
X00508
X004826
X004572
Y0043815
X004826
X00508
X005334
X005588
X005842
X006096
Y0046355
X005842
X005588
X005334
X00508
X004826
X004572
X0041656
Y0043815
X0039116
X0036576
X0034036
X0031496
X0028956
Y0041275
X0031496
X0034036
X0036576
X0039116
X0041656
X0039116Y0046355
X0036576
X0034036
X0031496
X0028956
T10
X0065659Y0012391
Y0016891
T11
X0063627Y00254
Y002794
Y003048
X0066167
Y002794
Y00254
T12
X0063159Y0011141
Y0018141
T13
X0008684Y0003506
X0005434Y0008306
T14
X0011684Y0008306
T15
X004429Y001667
Y003667
X006604Y003556
Y000762
X002429Y001667
Y003667
X001397Y000254
X001524Y00508
M30
